<svg height="512pt" viewBox="0 0 512 512" width="512pt" fill="#FF9800" xmlns="http://www.w3.org/2000/svg"><path d="M453.332 512H58.668C26.305 512 0 485.695 0 453.332V58.668C0 26.305 26.305 0 58.668 0h394.664C485.695 0 512 26.305 512 58.668v394.664C512 485.695 485.695 512 453.332 512zM58.668 32C43.968 32 32 43.969 32 58.668v394.664C32 468.032 43.969 480 58.668 480h394.664c14.7 0 26.668-11.969 26.668-26.668V58.668C480 43.968 468.031 32 453.332 32zm0 0"/><path d="M346.668 181.332H165.332c-8.832 0-16-7.168-16-16s7.168-16 16-16h181.336c8.832 0 16 7.168 16 16s-7.168 16-16 16zm0 90.668H165.332c-8.832 0-16-7.168-16-16s7.168-16 16-16h181.336c8.832 0 16 7.168 16 16s-7.168 16-16 16zm0 90.668H165.332c-8.832 0-16-7.168-16-16s7.168-16 16-16h181.336c8.832 0 16 7.168 16 16s-7.168 16-16 16zm0 0"/></svg>