<svg xmlns="http://www.w3.org/2000/svg" width="190.141" height="190.141"><path d="M113.99 31.962c.003.013.016.023.019.036-.033-.157-.036-.15-.019-.036z"/><path d="M143.439 47.774c-4.296-10.141-18.709-11.294-28.396-9.479-.314-2.091-.964-5.748-1.053-6.333-.3-1.303-2.03-2.408-3.329-1.864-3.478 1.457-6.944 1.897-10.503 2.981-2.145.653-5.204 4.83-7.28 4.434-6.619-1.265-9.085-1.423-15.5 1.311-2.92 1.244-6.106-3.024-8.646-3.674-2.737-.701-4.725-.822-7.448-.031-5.587 1.621-7.252 8.639-7.802 13.914-9.536-16.741-20.945-32.465-32.654-47.792-.8-1.047-2.141-1.671-3.393-.89-4.803 3-8.655 6.335-12.762 10.295-.858.827-1.061 2.276-.425 3.294 10.328 16.53 21.418 36.846 35.677 52.712-1.178-.372-2.501.062-3.508.865-1.332 1.062-1.817 3.197-1.997 4.757-.282 2.454.072 4.909.448 7.333.303 1.955 3.583 1.931 3.909 0 .262-1.549.633-3.073.999-4.6a2.32 2.32 0 003.29-2.595c-.193-1.061-.441-2.239-.882-3.299 6.634 6.986 13.94 12.978 22.174 17.158.124.063.251.087.376.109 1.579 2.498 6.035 1.155 4.96-1.996-3.805-11.16-8.71-21.782-14.338-32.017.523-.134.995-.48 1.184-1.076 2.666-8.411 8.486-13.849 16.611-6.536 1.02.918 2.146.957 3.359.433 7.871-3.392 10.071-3.254 18.016-1.736.925.177 2.04.069 2.697-.713 3.43-4.08 7.657-4.969 12.148-6.429.359 2.472.312 4.026 2.464 5.823.344.453.855.771 1.563.732 5.035-.273 9.932-.309 14.848.955 4.971 1.278 8.173 5.314 12.802 7.059 1.968.745 3.022-1.616 2.391-3.105zM62.486 80.846c-19.49-18.417-34.455-40.12-49.025-62.642-5.193-8.027 3.812-13.498 9.448-5.7a659.7 659.7 0 0116.013 23.145c9.413 14.269 17.32 29.32 23.564 45.197z"/><path d="M181.166 95.413c-.926-1.271-2.641-2.035-4.358-1.716 1.534-8.088.981-15.495-6.293-20.278-.217-3.022-.794-6.08-3.271-8.088-1.16-.941-2.564-1.393-4.029-1.685 6.283-7.963 13.134-15.351 21.881-20.873.979-.618 1.588-2.115.827-3.156-11.803-16.141-25.718-10.919-36.489 3.466-12.023 16.057-20.46 34.995-30.886 52.081-1.093.673-1.74 2.315-.703 3.645 2.085 2.672 3.517 4.855 6.432 6.522.705.402 1.732.482 2.43 0 6.306-4.363 11.598-9.692 16.457-15.428 1.319 1.97 2.284 4.158 3.829 5.969 1.96 2.297 4.843 1.875 7.295.783 1.818-.808 3.928-2.219 5.325-3.617 1.369-1.369.735-3.932.28-5.576-.919-3.317-4.052-5.049-5.99-7.672-.486-.658-1.224-.969-1.977-1.044 2.648-3.579 5.259-7.193 7.929-10.742 3.336 1.076 5.094 1.819 5.156 7.035.012.963.519 1.951 1.387 2.418 7.139 3.84 6.061 10.01 4.958 17.044-.076.486-.005.916.126 1.311-23.955 10.349-45.506 19.977-72.255 23.215-24.458 2.961-49.78 1.2-73.091-6.773-.045-.071-.06-.144-.115-.212-1.865-2.385-3.792-4.821-5.271-7.47-2.492-4.459 3.115-7.73 6.766-8.619 1.59-.388 2.33-2.044 2.011-3.542-.137-.644-1.538-5.528-.933-5.968.641-.466 2.155-.221 2.886-.223 2.476-.007 4.78-.067 6.716-1.749 1.059-.92.539-2.972-.855-3.238-3.131-.597-7.938-1.214-10.997-.124-4.426 1.579-3.929 6.874-2.931 10.829-4.069 2.567-8.105 4.594-8.645 10.092-.243 2.476.964 4.823 2.652 6.912-1.22-.513-2.441-1.023-3.648-1.574-2.377-1.086-4.357 1.774-2.716 3.443-.005.022-.018.035-.022.059-8.416 48.993 55.95 78.927 95.913 79.27 51.651.444 76.263-44.773 79.114-90.917.197-3.211-2.514-4.416-4.895-3.81zm-26.269-5.3c-1.412 1.238-3.561 3.001-4.557 1.884-1.571-1.762-2.817-3.706-4.428-5.418a209.775 209.775 0 003.482-4.46c1.411 3.102 4.743 4.765 5.503 7.994zm3.672-27.228c-.082-.017-.168-.03-.25-.049-2.283-.525-3.333 1.947-2.245 3.425-10.407 14.044-23.88 31.445-31.709 31.025 4.404-3.479 7.554-11.259 9.527-14.864 7.2-13.148 13.629-27.127 22.951-38.958 3.473-4.407 8.328-9.413 14.288-9.598 1.599-.05 10.948 5.353 8.68 6.773-4.086 2.558-7.674 5.977-11.109 9.314-2.115 2.056-5.753 6.993-10.133 12.932zm-47.051 119.052c-41.575 3.771-92.911-25.171-97.042-68.988 25.573 14.667 55.806 17.362 84.748 14.855 24.987-2.165 57.516-8.791 78.104-25.141-5.34 39.285-21.317 75.238-65.81 79.274z"/><path d="M63.417 95.191c-.079-1.316-1.038-2.407-2.412-2.412-3.214-.013-6.525-.41-9.725-.122-2.805.253-3.181 3.587-1.163 4.706-1.345.642-1.926 2.652-.255 3.686 1.781 1.101 2.085 3.938 3.677 5.383 3.153 2.862 7.607.661 10.684-1.124.691-.401 1.229-1.236 1.179-2.056-.172-2.804-1.819-5.303-1.985-8.061zm-7.266 7.03c-1.024-1.64-1.96-3.367-3.591-4.441 2.166.084 4.362-.043 6.54-.126.446 1.466 1.007 2.9 1.316 4.378-1.556.893-3.348 1.657-4.265.189zm35.554-35.519c-.386-2.509-3.163-5.612-4.895-7.392-1.443-1.483-3.601-.355-3.858 1.377-.316-2.162-3.358-1.967-3.643.246-.438 3.4-2.847 5.862-4.4 8.78-1 1.878.301 3.609 2.217 3.864 2.087.278 4.798 3.895 6.216 5.323.911.917 2.814 1.12 3.69 0 2.819-3.608 5.406-7.439 4.673-12.198zm-8.715-5.12c.463 2.007 2.356 3.585 3.295 5.403.989 1.913-.077 4.18-1.376 6.106-1.302-1.269-2.709-2.489-4.252-3.38 1.263-2.579 2.29-5.195 2.333-8.129zm33.552-1.224c-1.77-1.774-3.537-3.548-5.306-5.323-1.017-1.021-2.716-1.013-3.733 0-1.782 1.773-3.521 3.319-5.521 4.661-.846-.489-1.948.223-1.999 1.251-1.68 1.07-1.28 3.826.684 4.329.409.105.82.109 1.231.095 1.621 3.049 3.481 5.824 5.59 8.752.852 1.181 2.298 1.431 3.421.441 2.113-1.863 4.695-3.089 6.911-4.821 1.801-1.408 1.969-2.42 2.146-4.57.163-1.955-2.202-3.589-3.424-4.815zm-11.548 4.022c1.598-.938 3.094-2.362 4.384-3.688 1.777 1.837 3.578 3.657 5.476 5.349-1.717 1.456-3.624 2.677-5.399 4.066-1.722-1.682-3.172-3.648-4.461-5.727zm4.023 33.179c-3.737-3.54-7.975-6.154-12.61-8.353-1.54-.731-3.365.138-3.406 1.955-.072 3.169-1.089 6.239-3.2 8.642-1.71 1.947 1.044 4.772 2.866 2.866 2.183-2.282 3.58-5.033 4.306-8.013 2.686 1.496 5.217 3.146 7.549 5.204-.915 1.933-2.15 3.762-4.452 3.749-2.572-.014-4.774-.942-7.352-.269-1.967.515-1.845 3.278 0 3.851 2.972.924 6.354 1.614 9.469 1.105 4.038-.659 6.076-5.138 7.434-8.452.302-.733-.056-1.764-.604-2.285z"/></svg>