<svg xmlns="http://www.w3.org/2000/svg" fill="#FF9800" viewBox="0 0 512 512"><path d="M481.396 54.64a13.319 13.319 0 00-11.155-7.795c-17.192-1.272-39.987-1.622-54.362 3.421 1.143-12.507.447-26.743-.594-38.157a13.329 13.329 0 00-21.493-9.271C379.178 14.283 360.481 30.882 354.4 44.96c-1.967 4.554-3.234 8.854-3.907 12.878-5.567-7.216-11.792-14.177-17.386-20.049a13.326 13.326 0 00-13.103-3.677 13.319 13.319 0 00-9.5 9.744c-4.35 18.034-8.698 42.648-4.714 57.489a60.166 60.166 0 002.651 7.78c-9.946-14.335-28.273-29.613-43.093-40.673a14.46 14.46 0 00-14.687-1.551 14.454 14.454 0 00-8.392 12.155 348.231 348.231 0 00-.778 18.193 7.499 7.499 0 007.502 7.617 7.5 7.5 0 007.497-7.383c.083-5.275.311-10.795.679-16.418 22.188 16.648 37.592 32.055 42.319 42.342 7.663 16.677 5.19 30.36-6.453 35.712-11.643 5.354-23.637-1.687-31.3-18.362-1.502-3.271-2.712-7.75-3.596-13.314a7.498 7.498 0 00-8.583-6.231 7.5 7.5 0 00-6.231 8.583c1.113 7.013 2.677 12.647 4.78 17.226 1.503 3.27 3.131 6.225 4.859 8.888-14.658-12.834-37.771-24.674-56.298-32.982a15.455 15.455 0 00-15.682 1.817 15.443 15.443 0 00-5.913 14.623c3.222 21.078 8.952 48.626 18.429 66.247-2.109 2.017-4.203 4.14-6.32 6.288l-1.103 1.119c-16.587-7.226-35.061-12.885-48.162-16.47a16.527 16.527 0 00-16.277 4.481 16.546 16.546 0 00-3.868 16.454 447.015 447.015 0 007.946 23.044c-22.056 5.849-36.902 16.386-43.134 21.481-7.268-1.43-14.758-.402-21.5 3.029-8.443 4.3-14.682 11.78-17.567 21.063-3.977 12.794-.553 26.296 7.798 35.466-7.615 14.571-16.428 35.048-20.358 57.514a7.5 7.5 0 007.397 8.793 7.501 7.501 0 007.379-6.209c3.458-19.768 11.118-38.012 17.988-51.429.584.236 1.175.46 1.777.665 1.83.624 32.073 10.776 78.135 17.225-2.037 15.949-4.161 40.451-2.138 63.718.913 10.489 9.567 18.399 20.132 18.399h104.812a20.15 20.15 0 0020.195-19.454c.527-14.281.955-40.004-1.456-61.947 24.557-3.403 48.326-8.717 71.135-15.906 7.882 12.798 17.332 30.552 22.955 49.563a7.502 7.502 0 007.189 5.375 7.5 7.5 0 007.195-9.629c-5.777-19.534-15.187-37.657-23.317-51.117 12.803-8.45 19.124-25.102 14.37-40.783-2.822-9.31-9.015-16.839-17.437-21.199a33.63 33.63 0 00-8.962-3.136 401.597 401.597 0 0016.845-7.506 15.454 15.454 0 001.56-27.1c-8.09-5.032-17.394-10.467-26.939-15.333 17.435-2.76 39.845-13.641 56.586-22.945a14.454 14.454 0 007.434-12.763 14.455 14.455 0 00-7.646-12.635 364.935 364.935 0 00-12.423-6.341c14.606-2.37 32.896-10.766 46.687-18.025a13.319 13.319 0 007.115-11.601 13.318 13.318 0 00-6.78-11.8 306.786 306.786 0 00-9.274-5.025 60.696 60.696 0 006.98-2.654c14-6.338 30.265-25.314 41.446-40.119a13.326 13.326 0 001.501-13.525zM368.17 50.909c3.548-8.214 15.311-20.646 32.443-34.341 1.532 18.93.971 34.538-1.556 43.643-3.617 3.231-6.443 6.847-8.371 10.767a29.47 29.47 0 00-2.137 5.813 188.98 188.98 0 00-3.304 2.16c-3.717 1.774-7.658 1.825-11.621.11-9.294-4.02-11.332-14.544-5.454-28.152zm22.255 45.064a40.485 40.485 0 00-3.03-.221c.796-.568 1.553-1.104 2.263-1.601.218.567.45 1.132.704 1.693.02.044.043.085.063.129zm-66.052-45.582c14.958 16.017 24.792 30.023 27.117 38.687 1.457 5.426 1.831 10.312 1.173 14.445a473.686 473.686 0 00-15.108 13.134c-2.637-.098-5.12-.956-7.416-2.594-4.375-3.123-7.785-8.864-9.863-16.604-2.326-8.664-.83-25.712 4.097-47.068zm27.552 91.789c-3.473-.631-6.781-.989-9.836-.989l-.329.001a70.97 70.97 0 00-8.709.601 471.964 471.964 0 0111.31-10.81 31.004 31.004 0 001.55-.364c.635-.17 1.257-.365 1.871-.572.466 4.388 1.877 8.496 4.143 12.133zm-30.502-15.909a29.893 29.893 0 003.58 2.183 473.16 473.16 0 00-6.529 6.492c-.669-5.072-2.196-10.542-4.731-16.366 2.252 3.061 4.821 5.649 7.68 7.691zm-23.86 54.92c.681 5.573 2.754 11.016 6.313 15.774-7.117-.273-13.699.365-19.606 1.854a407.5 407.5 0 0113.293-17.628zm-14.861-5.469a426.238 426.238 0 00-9.207 12.326c-1.636-6.225-4.701-12.891-9.544-19.877 5.98 4.662 12.433 7.039 18.751 7.551zm-92.806-38.62c-.018-.116-.04-.262.174-.425.22-.167.359-.105.463-.059 29.584 13.265 51.156 26.918 59.183 37.462 10.262 13.473 12.893 26.486 7.595 35.993-3.054-2.051-5.542-4.079-7.911-6.011-6.856-5.593-13.333-10.875-27.321-11.972-6.194-.49-11.588 1.152-16.578 4.047-6.162-12.719-11.713-33.573-15.605-59.035zm-57.456 74.336c.421-.436.931-.576 1.512-.419 11.049 3.025 26.038 7.566 40.177 13.258-7.839 6.481-16.779 11.579-28.433 12.682-1.722.163-3.403.37-5.064.597-3.661-9.516-6.612-18.396-8.556-24.572-.185-.584-.062-1.104.364-1.546zm14.669 40.455c20.659-1.956 34.546-13.431 45.632-24.321.089-.08.171-.167.257-.252 1.681-1.656 3.299-3.298 4.866-4.888 9.75-9.896 16.082-15.919 23.044-15.389 9.313.731 12.964 3.709 19.013 8.643 7.054 5.754 15.833 12.914 35.373 18.921 32.382 9.945 50.763 17.7 58.417 30.937-63.215 19.343-125.274 18.185-166.887 13.614-28.647-3.146-51.775-8.308-65.64-11.914 9.765-6.03 25.467-13.415 45.925-15.351zm124.53 158.34a5.195 5.195 0 01-5.205 5.016H161.622c-2.68 0-4.959-2.064-5.188-4.699-1.909-21.958.128-45.303 2.076-60.538 18.113 2.036 38.193 3.384 59.61 3.384 17.707 0 35.108-.93 52.164-2.738 2.288 20.909 1.865 45.758 1.355 59.575zm88.729-131.76c4.796 2.484 8.34 6.827 9.978 12.23 3.316 10.938-2.37 22.625-12.674 26.051-43.2 14.36-90.152 21.642-139.552 21.642-83.221 0-145.189-20.801-147.786-21.687-10.283-3.506-15.889-15.236-12.496-26.15 1.674-5.386 5.243-9.7 10.049-12.147a18.312 18.312 0 018.329-2.02c1.98 0 3.97.326 5.904.983.333.112 33.848 11.289 83.067 16.693 44.787 4.918 112.536 6.009 180.953-16.733 4.723-1.571 9.777-1.166 14.228 1.138zm8.413-38.329c.105.066.236.147.22.421-.016.266-.144.326-.264.383-6.52 3.085-15.951 7.323-26.074 11.151-12.287-15.159-34.618-23.125-62.966-31.832-1.276-.392-2.478-.79-3.647-1.19 6.382-5.235 16.329-7.765 28.602-7.064 13.24.764 36.616 11.017 64.129 28.131zm29.418-63.646c-24.281 13.413-44.647 21.147-55.968 21.241-18.327.188-29.821-7.713-29.928-20.525-.048-5.734 2.195-10.664 6.486-14.256 5.189-4.343 13.175-6.683 23.095-6.765l.215-.001c11.364-.001 31.752 7.381 56.1 20.306zm-11.852-33.452l-.303-.002c-8.013-.115-14.417-2.013-18.518-5.487-3.331-2.822-4.987-6.526-4.923-11.011.064-4.483 1.826-8.139 5.237-10.864 4.067-3.25 10.25-4.959 17.916-4.959.249 0 .5.002.751.005 8.968.129 24.959 6.224 44.158 16.795-19.275 9.903-35.292 15.523-44.318 15.523zm45.913-48.428c-7.301 3.306-13.904 4.311-19.093 2.911-4.215-1.137-7.29-3.785-9.139-7.87-1.849-4.085-1.81-8.143.118-12.061 2.373-4.823 7.486-9.119 14.787-12.424 8.172-3.699 25.239-4.983 47.108-3.584-13.382 17.357-25.61 29.33-33.781 33.028z"/><path d="M383.361 462.502c10.933-14.242 16.25-31.376 15.82-51.042-.091-4.142-3.53-7.436-7.662-7.334a7.5 7.5 0 00-7.334 7.662c.401 18.364-5.217 33.937-16.7 46.28a7.503 7.503 0 00.833 10.987c7.204 5.709 10.195 11.552 10.592 15.115.224 2.01-.354 2.992-.81 3.556-3.197 3.965-16.403 4.271-29.815-4.275a47.552 47.552 0 01-4.487-3.236 7.499 7.499 0 00-7.719-1.07c-27.371 11.849-66.335 17.856-115.812 17.856-53.365 0-95.358-6.943-124.815-20.637a7.497 7.497 0 00-8.391 1.425c-2.115 2.058-4.541 3.963-7.208 5.662-13.415 8.546-26.619 8.24-29.816 4.275-.285-.354-1.152-1.429-.756-3.956.646-4.123 4.691-11.097 13.961-17.184a7.498 7.498 0 001.285-11.473c-11.632-12.076-18.41-26.961-20.147-44.239-.415-4.121-4.093-7.139-8.212-6.712a7.5 7.5 0 00-6.712 8.212c1.791 17.815 8.086 33.542 18.74 46.857-7.562 6.664-12.54 14.603-13.734 22.214-.933 5.949.415 11.377 3.898 15.696 9.27 11.496 30.573 11.049 49.554-1.041a62.197 62.197 0 005.732-4.122C124.75 505.267 167.313 512 220.267 512c49.194 0 88.759-5.853 117.707-17.401a63.284 63.284 0 002.25 1.502c18.979 12.091 40.282 12.539 49.553 1.041 3.26-4.042 4.657-9.103 4.041-14.633-.748-6.702-4.469-13.738-10.457-20.007zM264.538 240.236a7.5 7.5 0 00-7.5 7.5v.844a7.5 7.5 0 007.5 7.5 7.5 7.5 0 007.5-7.5v-.844a7.5 7.5 0 00-7.5-7.5zm-24.934 1.946a7.5 7.5 0 00-7.5 7.5v.844a7.5 7.5 0 007.5 7.5 7.5 7.5 0 007.5-7.5v-.844a7.5 7.5 0 00-7.5-7.5zm-18.107-21.256a7.5 7.5 0 00-7.5 7.5v.844a7.5 7.5 0 007.5 7.5 7.5 7.5 0 007.5-7.5v-.844a7.5 7.5 0 00-7.5-7.5zm-20.76 23.075a7.5 7.5 0 00-7.5 7.5v.844a7.5 7.5 0 007.5 7.5 7.5 7.5 0 007.5-7.5v-.844a7.498 7.498 0 00-7.5-7.5z"/></svg>