<svg xmlns="http://www.w3.org/2000/svg" viewBox="0 0 469.333 469.333"><path d="M426.667 0h-384C19.146 0 0 19.135 0 42.667v384c0 23.531 19.146 42.667 42.667 42.667h384c23.521 0 42.667-19.135 42.667-42.667v-384C469.333 19.135 450.188 0 426.667 0zM448 426.667c0 11.76-9.563 21.333-21.333 21.333h-384c-11.771 0-21.333-9.573-21.333-21.333v-384c0-11.76 9.563-21.333 21.333-21.333h384c11.771 0 21.333 9.573 21.333 21.333v384z"/><path d="M338.208 131.125c-4.167-4.167-10.917-4.167-15.083 0l-88.458 88.458-88.458-88.458c-4.167-4.167-10.917-4.167-15.083 0-4.167 4.167-4.167 10.917 0 15.083l88.458 88.458-88.458 88.458c-4.167 4.167-4.167 10.917 0 15.083 2.083 2.083 4.813 3.125 7.542 3.125s5.458-1.042 7.542-3.125l88.458-88.458 88.458 88.458a10.634 10.634 0 007.542 3.125c2.729 0 5.458-1.042 7.542-3.125 4.167-4.167 4.167-10.917 0-15.083l-88.458-88.458 88.458-88.458c4.165-4.166 4.165-10.916-.002-15.083z"/></svg>